# xmcd
#
# Track frame offsets:
#	150
#	16249
#	35577
#	52238
#	65487
#	79483
#	101070
#	119025
#	140271
#	157707
#	174991
#	194958
#	212752
#	229549
#	247214
#
# Disc length: 3529 seconds
#
# Revision: 1
# Processed by: cddbd v1.5.1PL0 Copyright (c) Steve Scherf et al.
# Submitted via: EasyCDDAExtractor 5.0.6
#
DISCID=dd0dc70f
DTITLE=Calcinha Preta - Vol 11
DYEAR=2004
DGENRE=Forró
TTITLE0=hoje a noite
TTITLE1=hipnose
TTITLE2=não tenho nada
TTITLE3=baby dool
TTITLE4=eu quero é gozar a vida
TTITLE5=morrendo de desejo
TTITLE6=ansia
TTITLE7=meu amor não vá
TTITLE8=quem sabe um dia
TTITLE9=vem ver a calcinha preta
TTITLE10=te quero namorar
TTITLE11=porque te amo?
TTITLE12=por amor
TTITLE13=seu namorado
TTITLE14=amor da minha vida
EXTD=
EXTT0=
EXTT1=
EXTT2=
EXTT3=
EXTT4=
EXTT5=
EXTT6=
EXTT7=
EXTT8=
EXTT9=
EXTT10=
EXTT11=
EXTT12=
EXTT13=
EXTT14=
PLAYORDER=
